<?xml version="1.0" encoding="utf-8"?>
<!-- Generator: Adobe Illustrator 16.0.0, SVG Export Plug-In . SVG Version: 6.00 Build 0)  -->
<!DOCTYPE svg PUBLIC "-//W3C//DTD SVG 1.1//EN" "http://www.w3.org/Graphics/SVG/1.1/DTD/svg11.dtd">
<svg version="1.1" id="Logo" xmlns="http://www.w3.org/2000/svg" xmlns:xlink="http://www.w3.org/1999/xlink" x="0px" y="0px"
	 width="136.834px" height="93.99px" viewBox="0 0 136.834 93.99" enable-background="new 0 0 136.834 93.99" xml:space="preserve">
<g>
	<g>
		<g>
			<g>
				<g>
					<path fill="#DC1F26" d="M125.798,32.28l-6.986,27.965l-6.985-27.965h-11.036l10.81,34.406
						c1.731,5.51-2.482,11.251-8.249,10.938c-0.075-0.004-0.15-0.009-0.226-0.015c-5.493-0.413-9.605-5.263-9.605-10.771V18.362
						H83.038l-0.046,48.875c0,11.542,9.39,20.933,20.934,20.933c3.597,0,6.983-0.913,9.943-2.519
						c1.08-0.585,2.095-1.274,3.051-2.034c3.174-2.522,5.598-5.94,6.889-9.874l0.522-1.663l12.504-39.799H125.798z"/>
					<path fill="#DC1F26" d="M64.049,18.362v14.766c-1.178-0.518-2.345-0.918-3.497-1.201c-1.156-0.283-2.464-0.424-3.923-0.424
						c-2.639,0-4.982,0.448-7.031,1.342c-2.05,0.896-3.782,2.191-5.194,3.887c-1.413,1.696-2.498,3.758-3.251,6.184
						c-0.754,2.426-1.13,5.147-1.13,8.163c0,2.968,0.435,5.642,1.308,8.02c0.87,2.38,2.13,4.406,3.78,6.078
						c1.649,1.673,3.675,2.957,6.078,3.852c2.403,0.894,5.135,1.343,8.198,1.343c1.271,0,2.602-0.06,3.993-0.177
						c1.389-0.118,2.756-0.272,4.099-0.46c1.343-0.188,2.626-0.411,3.852-0.671c1.224-0.258,2.308-0.529,3.251-0.813V18.362H64.049z
						 M64.049,61.042c-0.519,0.095-1.178,0.177-1.978,0.247c-0.802,0.07-1.673,0.106-2.615,0.106c-2.875,0-5.042-0.99-6.502-2.969
						s-2.191-4.593-2.191-7.844c0-6.784,2.497-10.177,7.492-10.177c1.083,0,2.156,0.142,3.215,0.424
						c1.061,0.283,1.919,0.637,2.58,1.061V61.042z"/>
				</g>
				<g>
					<path fill="#DC1F26" d="M0,51.106c0-3.292,0.505-6.175,1.517-8.646c1.012-2.47,2.34-4.528,3.988-6.176
						c1.646-1.646,3.54-2.894,5.682-3.741c2.141-0.847,4.34-1.27,6.599-1.27c5.269,0,9.433,1.612,12.492,4.834
						c3.058,3.224,4.588,7.964,4.588,14.221c0,0.612-0.024,1.283-0.071,2.012c-0.047,0.73-0.095,1.376-0.141,1.941H10.798
						c0.235,2.164,1.246,3.881,3.035,5.151c1.788,1.271,4.188,1.906,7.199,1.906c1.929,0,3.822-0.177,5.682-0.529
						c1.858-0.354,3.375-0.787,4.552-1.306l1.411,8.54c-0.564,0.282-1.317,0.564-2.258,0.847c-0.942,0.282-1.988,0.529-3.141,0.741
						c-1.153,0.211-2.389,0.388-3.706,0.529c-1.318,0.141-2.635,0.211-3.952,0.211c-3.341,0-6.246-0.493-8.717-1.481
						c-2.47-0.988-4.517-2.341-6.14-4.059c-1.623-1.717-2.823-3.752-3.6-6.104C0.388,56.377,0,53.836,0,51.106z M24.702,47.084
						c-0.047-0.894-0.201-1.765-0.458-2.611c-0.26-0.847-0.66-1.6-1.2-2.259c-0.542-0.658-1.224-1.2-2.047-1.623
						c-0.824-0.424-1.847-0.635-3.07-0.635c-1.177,0-2.188,0.201-3.035,0.6c-0.847,0.4-1.552,0.93-2.117,1.588
						c-0.564,0.66-1,1.424-1.306,2.294c-0.307,0.871-0.529,1.753-0.67,2.647H24.702z"/>
				</g>
			</g>
		</g>
		<polygon fill="#DC1F26" points="72.372,7.992 78.785,0 85.199,7.992 		"/>
	</g>
	<g>
		<g>
			<g>
				<path fill="#949699" d="M29.672,85.364c0-1.109-0.259-2.002-0.777-2.68c-0.615-0.802-1.529-1.203-2.742-1.203
					c-0.627,0-1.309,0.176-2.046,0.525S23,82.674,23,82.958c0,0.018,0.037,0.068,0.111,0.153c0.074,0.086,0.114,0.151,0.12,0.196
					h0.504c0.553-0.29,0.931-0.483,1.136-0.58c0.729-0.341,1.236-0.512,1.521-0.512c0.512,0,0.971,0.188,1.375,0.563
					c0.375,0.347,0.563,0.705,0.563,1.074c0,0.706-0.535,1.218-1.606,1.536c-0.997,0.284-1.991,0.568-2.981,0.854
					c-1.065,0.494-1.598,1.311-1.598,2.448c0,0.666,0.245,1.224,0.735,1.672c0.49,0.45,1.073,0.675,1.751,0.675
					c0.433,0,0.872-0.1,1.316-0.299c0.353-0.159,0.706-0.379,1.059-0.657c-0.25,0.023-0.493,0.043-0.726,0.06
					c-0.233,0.018-0.444,0.025-0.632,0.025c-0.626,0-1.113-0.099-1.461-0.298c-0.467-0.268-0.7-0.72-0.7-1.356
					c0-0.688,0.465-1.34,1.395-1.954c0.833-0.552,1.58-0.827,2.242-0.827c0.451,0,0.782,0.125,0.993,0.375
					c0.234,0.272,0.351,0.717,0.351,1.331c0,0.034,0,0.072,0,0.115c0,0.042,0,0.093,0,0.149c0,0.268-0.057,0.531-0.171,0.793
					c-0.171,0.387-0.481,0.839-0.931,1.356c0.325,0.108,0.592,0.351,0.803,0.726c0.171,0.307,0.47,0.461,0.897,0.461
					c0.154,0,0.293-0.131,0.418-0.393s0.188-0.526,0.188-0.794V85.364z"/>
				<path fill="#949699" d="M35.729,81.576c-0.08-0.029-0.157-0.06-0.23-0.095c-0.091-0.027-0.234-0.042-0.427-0.042
					c-0.37,0-0.783,0.172-1.239,0.517c-0.456,0.344-0.82,0.516-1.094,0.516c-0.188,0-0.441-0.108-0.76-0.324
					s-0.521-0.324-0.606-0.324c-0.143,0-0.275,0.112-0.397,0.337s-0.184,0.42-0.184,0.585v7.389c0,0.278,0.043,0.466,0.128,0.563
					c0.04,0.046,0.216,0.159,0.529,0.342c0.188-0.183,0.313-0.33,0.376-0.443c0.091-0.16,0.137-0.356,0.137-0.589v-3.106
					c0-1.023,0.293-1.922,0.88-2.696c0.416-0.551,0.982-1.037,1.7-1.458c0.393-0.217,0.789-0.436,1.188-0.657V81.576z"/>
				<path fill="#949699" d="M42.869,88.862L42.869,88.862c-0.542,0.728-1.276,1.092-2.204,1.092c-0.809,0-1.453-0.202-1.931-0.605
					c-0.375-0.318-0.638-0.754-0.786-1.306c-0.097-0.358-0.146-0.788-0.146-1.288c0-0.052,0-0.138,0-0.261c0-0.122,0-0.206,0-0.251
					c0-1.257,0.194-2.188,0.583-2.79c0.435-0.677,1.154-1.016,2.16-1.016c0.982,0,1.75,0.37,2.305,1.109
					c0.52,0.694,0.78,1.593,0.78,2.696C43.629,87.307,43.375,88.18,42.869,88.862 M44.056,83.179
					c-0.41-0.608-0.96-1.074-1.649-1.398c-0.484-0.228-0.92-0.341-1.307-0.341c-0.388,0-0.909,0.142-1.563,0.427
					c-0.291,0.125-0.559,0.188-0.803,0.188c-0.473,0-0.783-0.236-0.931-0.708c-0.085-0.273-0.128-0.773-0.128-1.502
					c0-0.466-0.009-0.791-0.025-0.973c-0.052-0.54-0.234-0.811-0.547-0.811c-0.131,0-0.244,0.071-0.338,0.214
					c-0.094,0.142-0.141,0.31-0.141,0.503c-0.017,0.472-0.034,1.042-0.051,1.71c-0.017,0.669-0.034,1.619-0.051,2.851
					s-0.026,3.187-0.026,5.865c0,0.694,0.037,1.149,0.111,1.365c0.103,0.296,0.327,0.443,0.675,0.443
					c0.398,0,0.703-0.088,0.914-0.264c0.239-0.205,0.386-0.312,0.44-0.32s0.112-0.013,0.175-0.013
					c0.365,0.14,0.724,0.274,1.077,0.403c0.353,0.13,0.735,0.193,1.145,0.193c1.145,0,2.079-0.491,2.802-1.474
					c0.683-0.927,1.025-2.049,1.025-3.368C44.859,84.972,44.591,83.974,44.056,83.179z"/>
				<path fill="#949699" d="M47.054,82.207L47.054,82.207c0-0.216-0.051-0.408-0.153-0.576c-0.102-0.167-0.243-0.251-0.424-0.251
					c-0.289,0-0.474,0.176-0.556,0.528c-0.082,0.354-0.123,1.027-0.123,2.022c0,0.347,0,0.71,0,1.088s0,0.775,0,1.19
					c0,0.347,0,0.793,0,1.339s0,0.919,0,1.118c0,1.581,0.205,2.372,0.615,2.372c0.152,0,0.296-0.099,0.434-0.295
					s0.207-0.419,0.207-0.67V82.207z M47.111,79.098C47.17,78.975,47.2,78.843,47.2,78.7c0-0.25-0.085-0.443-0.253-0.58
					c-0.147-0.103-0.299-0.153-0.457-0.153c-0.22,0-0.407,0.078-0.562,0.234c-0.155,0.157-0.232,0.349-0.232,0.576
					c0,0.268,0.102,0.475,0.304,0.623c0.146,0.085,0.29,0.128,0.431,0.128c0.146,0,0.287-0.043,0.422-0.128
					C46.966,79.32,47.052,79.22,47.111,79.098z"/>
				<path fill="#949699" d="M53.427,86.081c-0.911-0.348-1.823-0.694-2.734-1.041c-0.979-0.387-1.469-0.894-1.469-1.52
					c0-0.284,0.174-0.597,0.521-0.938c0.416-0.403,0.903-0.605,1.461-0.605c0.296,0,0.644,0.08,1.042,0.239
					c0.359,0.143,0.771,0.31,1.239,0.503c0.034,0,0.1-0.028,0.196-0.085c0.04-0.022,0.077-0.034,0.111-0.034v-0.495
					c-0.427-0.313-0.802-0.515-1.124-0.605s-0.811-0.137-1.465-0.137c-0.979,0-1.758,0.217-2.336,0.648
					c-0.578,0.433-0.867,0.996-0.867,1.689c0,0.83,0.501,1.502,1.504,2.014c0.928,0.364,1.859,0.726,2.793,1.084
					c0.997,0.426,1.495,0.958,1.495,1.595c0,0.364-0.208,0.733-0.624,1.109c-0.456,0.409-0.971,0.614-1.546,0.614
					c-0.364,0-0.777-0.107-1.238-0.324c-0.946-0.443-1.458-0.666-1.538-0.666c-0.199,0-0.333,0.058-0.401,0.171
					c-0.034,0.058-0.06,0.125-0.077,0.205c0.359,0.507,0.852,0.885,1.478,1.135c0.547,0.222,1.162,0.333,1.845,0.333
					c0.94,0,1.71-0.233,2.311-0.7c0.601-0.466,0.901-1.092,0.901-1.877C54.905,87.392,54.413,86.621,53.427,86.081"/>
				<path fill="#949699" d="M62.098,88.623L62.098,88.623c-0.524,0.922-1.295,1.383-2.315,1.383c-0.701,0-1.321-0.321-1.862-0.965
					c-0.626-0.739-0.94-1.729-0.94-2.969c0-1.019,0.256-1.889,0.769-2.61c0.552-0.78,1.278-1.17,2.178-1.17
					c0.934,0,1.649,0.382,2.145,1.144c0.433,0.666,0.649,1.527,0.649,2.585C62.722,87.027,62.514,87.896,62.098,88.623
					 M63.03,83.043c-0.456-0.625-1.065-1.095-1.828-1.407c-0.513-0.211-0.966-0.316-1.358-0.316c-0.969,0-1.786,0.279-2.452,0.837
					c-0.564,0.472-0.994,1.108-1.29,1.911c-0.245,0.665-0.367,1.359-0.367,2.082c0,1.223,0.293,2.243,0.88,3.063
					c0.45,0.632,1.051,1.106,1.802,1.425c0.547,0.233,1.051,0.35,1.512,0.35c0.94,0,1.737-0.272,2.392-0.819
					c0.547-0.454,0.968-1.077,1.265-1.868c0.245-0.659,0.367-1.334,0.367-2.022C63.952,84.963,63.645,83.885,63.03,83.043z"/>
				<path fill="#949699" d="M68.788,78.231c-0.103-0.046-0.225-0.068-0.367-0.068c-0.632,0-1.111,0.202-1.436,0.605
					c-0.216,0.273-0.382,0.694-0.495,1.263c-0.137,0.688-0.214,1.056-0.231,1.101c-0.103,0.233-0.416,0.541-0.94,0.922
					c-0.205,0.147-0.308,0.293-0.308,0.435c0,0.165,0.12,0.336,0.359,0.513c0.325,0.238,0.541,0.43,0.649,0.571
					c0.233,0.318,0.35,0.739,0.35,1.263v5.58c0,0.37,0.117,0.592,0.35,0.665c0.069,0.018,0.163,0.046,0.282,0.086
					c0.182-0.228,0.312-0.445,0.389-0.653c0.077-0.207,0.115-0.444,0.115-0.712v-5.563c0-0.319,0.151-0.595,0.453-0.828
					c0.513-0.403,0.854-0.711,1.025-0.922c-0.319-0.278-0.635-0.557-0.948-0.836c-0.353-0.318-0.53-0.643-0.53-0.973
					c0-0.363,0.146-0.683,0.436-0.955c0.717-0.683,1.102-1.123,1.153-1.322C69.021,78.362,68.918,78.305,68.788,78.231"/>
				<path fill="#949699" d="M73.674,81.243c-0.331-0.143-0.572-0.328-0.727-0.56c-0.153-0.229-0.24-0.704-0.261-1.424
					c-0.02-0.72-0.206-1.08-0.56-1.08c-0.228,0-0.384,0.154-0.47,0.461c-0.057,0.205-0.085,0.501-0.085,0.888v0.393
					c-0.034,0.335-0.186,0.662-0.453,0.98c-0.239,0.285-0.51,0.601-0.812,0.947c0.29,0.318,0.581,0.635,0.871,0.947
					c0.262,0.313,0.394,0.605,0.394,0.879v5.085c0,0.614,0.153,1.126,0.461,1.536c0.359,0.478,0.883,0.716,1.572,0.716
					c0.376,0,0.583-0.017,0.623-0.051c0.068-0.147,0.137-0.299,0.205-0.452c-0.746-0.592-1.182-0.961-1.307-1.109
					c-0.233-0.273-0.373-0.634-0.419-1.083c-0.017-0.177-0.025-0.941-0.025-2.296c0-1.529,0.094-2.533,0.282-3.012
					c0.107-0.278,0.35-0.471,0.726-0.575c0.376-0.105,0.672-0.357,0.889-0.756C74.465,81.604,74.164,81.459,73.674,81.243"/>
			</g>
		</g>
		<g>
			<path fill="#949699" d="M11.089,84.638c-0.176-0.56-0.437-1.049-0.774-1.452c-0.338-0.407-0.76-0.729-1.254-0.956
				c-0.493-0.227-1.063-0.341-1.693-0.341c-0.576,0-1.082,0.083-1.504,0.247c-0.338,0.131-0.608,0.259-0.802,0.382v-4.557
				l-1.179-0.008L3.82,77.965v12.599l0.052,0.019c0.323,0.112,0.742,0.22,1.246,0.32c0.501,0.101,1.147,0.151,1.917,0.151
				c0.641,0,1.231-0.105,1.755-0.313c0.524-0.208,0.982-0.515,1.363-0.911c0.378-0.395,0.675-0.881,0.884-1.445
				c0.208-0.563,0.314-1.206,0.314-1.912C11.351,85.812,11.263,85.194,11.089,84.638z M6.551,83.104
				c0.229-0.049,0.47-0.073,0.718-0.073c0.518,0,0.957,0.093,1.306,0.274c0.347,0.182,0.631,0.429,0.847,0.734
				c0.216,0.309,0.375,0.675,0.471,1.09c0.098,0.421,0.148,0.872,0.148,1.342c0,1.107-0.279,1.968-0.829,2.556
				s-1.288,0.886-2.194,0.886c-0.527,0-0.958-0.025-1.281-0.076c-0.288-0.043-0.514-0.09-0.675-0.138v-5.941
				c0.09-0.067,0.2-0.14,0.336-0.221c0.148-0.087,0.321-0.17,0.514-0.245C6.11,83.216,6.325,83.152,6.551,83.104z"/>
			<path fill="#949699" d="M17.523,82.072l-0.014,0.062c-0.164,0.761-0.316,1.435-0.465,2.058c-0.149,0.625-0.308,1.25-0.471,1.856
				c-0.167,0.616-0.345,1.229-0.531,1.822c-0.17,0.547-0.371,1.143-0.594,1.771c-0.307-0.607-0.596-1.234-0.86-1.864
				c-0.284-0.679-0.55-1.357-0.79-2.015c-0.243-0.671-0.458-1.313-0.64-1.907c-0.187-0.61-0.344-1.189-0.465-1.721l-0.014-0.062
				h-1.315l0.023,0.098c0.176,0.724,0.39,1.469,0.635,2.217s0.518,1.507,0.813,2.255c0.295,0.748,0.617,1.498,0.957,2.229
				c0.336,0.725,0.686,1.429,1.039,2.093c-0.145,0.369-0.296,0.679-0.448,0.92c-0.155,0.246-0.333,0.45-0.526,0.606
				c-0.191,0.153-0.41,0.264-0.648,0.326c-0.242,0.065-0.519,0.099-0.824,0.099c-0.212,0-0.421-0.03-0.621-0.09
				c-0.277-0.082-0.339-0.119-0.352-0.129l-0.097-0.069l-0.245,1.017L11.059,93.7l0.05,0.029c0.062,0.036,0.203,0.086,0.445,0.157
				c0.236,0.069,0.5,0.104,0.785,0.104c0.495,0,0.934-0.058,1.304-0.171c0.372-0.113,0.702-0.292,0.982-0.532
				c0.278-0.235,0.534-0.542,0.762-0.911c0.223-0.36,0.444-0.8,0.657-1.303c0.534-1.259,1.033-2.669,1.483-4.19
				c0.453-1.53,0.864-3.116,1.223-4.715l0.022-0.096H17.523z"/>
		</g>
	</g>
</g>
</svg>
